<?xml version="1.0" standalone="no"?><!DOCTYPE svg PUBLIC "-//W3C//DTD SVG 1.1//EN" "http://www.w3.org/Graphics/SVG/1.1/DTD/svg11.dtd"><svg t="1750236694152" class="icon" viewBox="0 0 1024 1024" version="1.1" xmlns="http://www.w3.org/2000/svg" p-id="1975" xmlns:xlink="http://www.w3.org/1999/xlink" width="200" height="200"><path d="M486.4 441.856v404.48s-20.48 45.056-123.904 72.704-166.912 39.424-166.912 39.424L148.48 852.48l208.384-43.008s13.312-295.424 88.576-359.936c51.712-44.544 40.96-7.68 40.96-7.68zM568.32 443.904v397.312s20.48 44.544 121.856 71.68 129.536 27.136 129.536 27.136l46.08-115.712-169.984-30.72s-18.432-273.408-87.04-342.016c-35.84-35.84-40.448-7.68-40.448-7.68z" fill="#F0B0BD" p-id="1976"></path><path d="M173.056 257.024a29.696 28.672 0 1 0 59.392 0 29.696 28.672 0 1 0-59.392 0Z" fill="#E1617B" p-id="1977"></path><path d="M303.616 257.024a29.696 28.672 0 1 0 59.392 0 29.696 28.672 0 1 0-59.392 0Z" fill="#E1617B" p-id="1978"></path><path d="M434.176 257.024a29.696 28.672 0 1 0 59.392 0 29.696 28.672 0 1 0-59.392 0Z" fill="#E1617B" p-id="1979"></path><path d="M473.6 333.824c-26.112-6.656-50.688 17.408-58.88 25.088-76.8 75.776-101.888 327.68-107.52 400.896l-183.808 33.28c-13.824 2.56-21.504 16.384-16.384 29.184l54.784 136.704c3.072 8.192 11.264 13.824 20.48 13.824 3.584 0 38.912-1.024 158.72-32.768C467.456 906.24 496.64 849.92 499.2 843.776l2.048-4.096V363.008l-0.512-2.56c-3.584-10.24-11.776-22.528-27.136-26.624z m-17.408 494.592c-7.68 10.752-38.912 45.568-127.488 69.632-73.728 19.968-113.664 27.136-132.608 29.696l-38.912-97.28 191.488-34.816 1.024-16.896c6.144-87.04 34.304-328.192 96.256-389.12 4.096-4.096 7.68-7.168 10.24-9.216v448z" fill="#E1617B" p-id="1980"></path><path d="M888.832 154.624h-276.992v-38.4c0-35.84-29.696-65.024-66.048-65.024H135.168c-36.352 0-66.048 29.184-66.048 65.024v272.384c0 34.816 28.16 63.488 64 65.024v72.704c0 9.216 5.632 16.896 14.336 20.48 2.56 1.024 5.12 1.536 7.68 1.536 6.144 0 12.288-2.56 16.896-7.68l76.8-87.04h86.016c5.12-15.36 10.752-29.696 16.384-43.008H238.08c-6.656 0-12.288 2.56-16.896 7.68l-44.544 50.688v-36.352c0-11.776-9.728-21.504-22.016-21.504h-19.456c-12.288 0-22.016-9.728-22.016-21.504V116.224c0-11.776 9.728-21.504 22.016-21.504h410.112c12.288 0 22.016 9.728 22.016 21.504v192c20.48 6.656 35.84 21.504 44.032 30.72V197.632h276.992c12.288 0 22.016 9.728 22.016 21.504V491.52c0 11.776-9.728 21.504-22.016 21.504h-19.456c-12.288 0-22.016 9.728-22.016 21.504v36.352l-44.544-50.688c-4.096-4.608-10.24-7.68-16.896-7.68h-97.792c1.024 5.12 2.56 9.728 3.584 14.848 2.048 9.216 4.096 18.944 6.144 28.672h77.824l76.8 87.04c4.096 4.608 10.24 7.68 16.896 7.68 2.56 0 5.12-0.512 7.68-1.536 8.704-3.072 14.336-11.264 14.336-20.48v-72.704c35.328-1.024 64-29.696 64-65.024V219.136c0-35.328-29.696-64.512-66.048-64.512z" fill="#E1617B" p-id="1981"></path><path d="M885.76 793.088l-184.32-33.28c-6.656-68.096-36.352-320.512-106.496-399.872-7.68-8.704-30.208-34.304-56.832-28.16-16.384 3.584-26.112 17.408-29.184 28.16l-1.024 3.072V839.68l2.048 4.096c3.072 6.144 31.744 62.464 158.208 96.256 119.296 31.744 155.136 32.768 158.72 32.768 9.216 0 17.408-5.632 20.48-13.824l54.784-136.704c5.12-12.8-2.56-26.624-16.384-29.184z m-73.216 134.656c-18.944-2.56-58.368-10.24-132.608-29.696-89.6-24.064-120.32-59.392-127.488-69.632V378.88c2.56 2.048 5.632 5.12 9.216 9.216 57.856 66.048 90.112 305.152 97.28 391.68l1.536 16.384 190.976 34.816-38.912 96.768z" fill="#E1617B" p-id="1982"></path><path d="M885.248 222.208h-273.408v117.248l4.096 4.096c31.744 35.84 55.296 100.864 72.704 170.496h97.792c6.656 0 12.288 2.56 16.896 7.68l44.544 50.688v-36.352c0-11.776 9.728-21.504 22.016-21.504h19.456c12.288 0 22.016-9.728 22.016-21.504V232.448c-6.656-6.656-15.872-10.24-26.112-10.24z m-180.736 167.424c-16.384 0-29.696-12.8-29.696-28.672s13.312-28.672 29.696-28.672c16.384 0 29.696 12.8 29.696 28.672-0.512 15.872-13.312 28.672-29.696 28.672z m110.08 0c-16.384 0-29.696-12.8-29.696-28.672s13.312-28.672 29.696-28.672c16.384 0 29.696 12.8 29.696 28.672s-13.312 28.672-29.696 28.672z" fill="#F0B0BD" p-id="1983"></path></svg>